<mxfile host="Electron" agent="Mozilla/5.0 (Windows NT 10.0; Win64; x64) AppleWebKit/537.36 (KHTML, like Gecko) draw.io/25.0.2 Chrome/128.0.6613.186 Electron/32.2.5 Safari/537.36" version="25.0.2">
  <diagram id="C5RBs43oDa-KdzZeNtuy" name="Page-1">
    <mxGraphModel dx="2420" dy="2107" grid="1" gridSize="10" guides="1" tooltips="1" connect="1" arrows="1" fold="1" page="1" pageScale="1" pageWidth="827" pageHeight="1169" math="0" shadow="0">
      <root>
        <mxCell id="WIyWlLk6GJQsqaUBKTNV-0" />
        <mxCell id="WIyWlLk6GJQsqaUBKTNV-1" parent="WIyWlLk6GJQsqaUBKTNV-0" />
        <mxCell id="7v97pKfbZcQ0z_pEZCTl-0" value="Пользователь" style="swimlane;fontStyle=1;align=center;verticalAlign=top;childLayout=stackLayout;horizontal=1;startSize=26;horizontalStack=0;resizeParent=1;resizeParentMax=0;resizeLast=0;collapsible=1;marginBottom=0;whiteSpace=wrap;html=1;" parent="WIyWlLk6GJQsqaUBKTNV-1" vertex="1">
          <mxGeometry x="200" y="164.5" width="160" height="112" as="geometry" />
        </mxCell>
        <mxCell id="7v97pKfbZcQ0z_pEZCTl-1" value="Имя" style="text;strokeColor=none;fillColor=none;align=left;verticalAlign=top;spacingLeft=4;spacingRight=4;overflow=hidden;rotatable=0;points=[[0,0.5],[1,0.5]];portConstraint=eastwest;whiteSpace=wrap;html=1;" parent="7v97pKfbZcQ0z_pEZCTl-0" vertex="1">
          <mxGeometry y="26" width="160" height="26" as="geometry" />
        </mxCell>
        <mxCell id="7v97pKfbZcQ0z_pEZCTl-2" value="" style="line;strokeWidth=1;fillColor=none;align=left;verticalAlign=middle;spacingTop=-1;spacingLeft=3;spacingRight=3;rotatable=0;labelPosition=right;points=[];portConstraint=eastwest;strokeColor=inherit;" parent="7v97pKfbZcQ0z_pEZCTl-0" vertex="1">
          <mxGeometry y="52" width="160" height="8" as="geometry" />
        </mxCell>
        <mxCell id="7v97pKfbZcQ0z_pEZCTl-3" value="Вход()&lt;div&gt;&lt;br&gt;&lt;/div&gt;" style="text;strokeColor=none;fillColor=none;align=left;verticalAlign=top;spacingLeft=4;spacingRight=4;overflow=hidden;rotatable=0;points=[[0,0.5],[1,0.5]];portConstraint=eastwest;whiteSpace=wrap;html=1;" parent="7v97pKfbZcQ0z_pEZCTl-0" vertex="1">
          <mxGeometry y="60" width="160" height="26" as="geometry" />
        </mxCell>
        <mxCell id="7v97pKfbZcQ0z_pEZCTl-6" value="Выход()" style="text;strokeColor=none;fillColor=none;align=left;verticalAlign=top;spacingLeft=4;spacingRight=4;overflow=hidden;rotatable=0;points=[[0,0.5],[1,0.5]];portConstraint=eastwest;whiteSpace=wrap;html=1;" parent="7v97pKfbZcQ0z_pEZCTl-0" vertex="1">
          <mxGeometry y="86" width="160" height="26" as="geometry" />
        </mxCell>
        <mxCell id="7v97pKfbZcQ0z_pEZCTl-7" value="Роль" style="swimlane;fontStyle=1;align=center;verticalAlign=top;childLayout=stackLayout;horizontal=1;startSize=26;horizontalStack=0;resizeParent=1;resizeParentMax=0;resizeLast=0;collapsible=1;marginBottom=0;whiteSpace=wrap;html=1;" parent="WIyWlLk6GJQsqaUBKTNV-1" vertex="1">
          <mxGeometry x="-40" y="164.5" width="160" height="86" as="geometry" />
        </mxCell>
        <mxCell id="7v97pKfbZcQ0z_pEZCTl-8" value="Название" style="text;strokeColor=none;fillColor=none;align=left;verticalAlign=top;spacingLeft=4;spacingRight=4;overflow=hidden;rotatable=0;points=[[0,0.5],[1,0.5]];portConstraint=eastwest;whiteSpace=wrap;html=1;" parent="7v97pKfbZcQ0z_pEZCTl-7" vertex="1">
          <mxGeometry y="26" width="160" height="26" as="geometry" />
        </mxCell>
        <mxCell id="7v97pKfbZcQ0z_pEZCTl-9" value="" style="line;strokeWidth=1;fillColor=none;align=left;verticalAlign=middle;spacingTop=-1;spacingLeft=3;spacingRight=3;rotatable=0;labelPosition=right;points=[];portConstraint=eastwest;strokeColor=inherit;" parent="7v97pKfbZcQ0z_pEZCTl-7" vertex="1">
          <mxGeometry y="52" width="160" height="8" as="geometry" />
        </mxCell>
        <mxCell id="7v97pKfbZcQ0z_pEZCTl-10" value="&lt;div&gt;&lt;br&gt;&lt;/div&gt;" style="text;strokeColor=none;fillColor=none;align=left;verticalAlign=top;spacingLeft=4;spacingRight=4;overflow=hidden;rotatable=0;points=[[0,0.5],[1,0.5]];portConstraint=eastwest;whiteSpace=wrap;html=1;" parent="7v97pKfbZcQ0z_pEZCTl-7" vertex="1">
          <mxGeometry y="60" width="160" height="26" as="geometry" />
        </mxCell>
        <mxCell id="7v97pKfbZcQ0z_pEZCTl-15" value="Документ" style="swimlane;fontStyle=1;align=center;verticalAlign=top;childLayout=stackLayout;horizontal=1;startSize=26;horizontalStack=0;resizeParent=1;resizeParentMax=0;resizeLast=0;collapsible=1;marginBottom=0;whiteSpace=wrap;html=1;" parent="WIyWlLk6GJQsqaUBKTNV-1" vertex="1">
          <mxGeometry x="750" y="440" width="160" height="216" as="geometry" />
        </mxCell>
        <mxCell id="7v97pKfbZcQ0z_pEZCTl-16" value="Название" style="text;strokeColor=none;fillColor=none;align=left;verticalAlign=top;spacingLeft=4;spacingRight=4;overflow=hidden;rotatable=0;points=[[0,0.5],[1,0.5]];portConstraint=eastwest;whiteSpace=wrap;html=1;" parent="7v97pKfbZcQ0z_pEZCTl-15" vertex="1">
          <mxGeometry y="26" width="160" height="26" as="geometry" />
        </mxCell>
        <mxCell id="7v97pKfbZcQ0z_pEZCTl-21" value="Содержимое" style="text;strokeColor=none;fillColor=none;align=left;verticalAlign=top;spacingLeft=4;spacingRight=4;overflow=hidden;rotatable=0;points=[[0,0.5],[1,0.5]];portConstraint=eastwest;whiteSpace=wrap;html=1;" parent="7v97pKfbZcQ0z_pEZCTl-15" vertex="1">
          <mxGeometry y="52" width="160" height="26" as="geometry" />
        </mxCell>
        <mxCell id="7v97pKfbZcQ0z_pEZCTl-17" value="" style="line;strokeWidth=1;fillColor=none;align=left;verticalAlign=middle;spacingTop=-1;spacingLeft=3;spacingRight=3;rotatable=0;labelPosition=right;points=[];portConstraint=eastwest;strokeColor=inherit;" parent="7v97pKfbZcQ0z_pEZCTl-15" vertex="1">
          <mxGeometry y="78" width="160" height="8" as="geometry" />
        </mxCell>
        <mxCell id="7v97pKfbZcQ0z_pEZCTl-18" value="Просмотр()" style="text;strokeColor=none;fillColor=none;align=left;verticalAlign=top;spacingLeft=4;spacingRight=4;overflow=hidden;rotatable=0;points=[[0,0.5],[1,0.5]];portConstraint=eastwest;whiteSpace=wrap;html=1;" parent="7v97pKfbZcQ0z_pEZCTl-15" vertex="1">
          <mxGeometry y="86" width="160" height="26" as="geometry" />
        </mxCell>
        <mxCell id="7v97pKfbZcQ0z_pEZCTl-19" value="Загрузка()" style="text;strokeColor=none;fillColor=none;align=left;verticalAlign=top;spacingLeft=4;spacingRight=4;overflow=hidden;rotatable=0;points=[[0,0.5],[1,0.5]];portConstraint=eastwest;whiteSpace=wrap;html=1;" parent="7v97pKfbZcQ0z_pEZCTl-15" vertex="1">
          <mxGeometry y="112" width="160" height="26" as="geometry" />
        </mxCell>
        <mxCell id="7v97pKfbZcQ0z_pEZCTl-24" value="ПолучитьСтатус()" style="text;strokeColor=none;fillColor=none;align=left;verticalAlign=top;spacingLeft=4;spacingRight=4;overflow=hidden;rotatable=0;points=[[0,0.5],[1,0.5]];portConstraint=eastwest;whiteSpace=wrap;html=1;" parent="7v97pKfbZcQ0z_pEZCTl-15" vertex="1">
          <mxGeometry y="138" width="160" height="26" as="geometry" />
        </mxCell>
        <mxCell id="7v97pKfbZcQ0z_pEZCTl-23" value="ИзменитьСтатус()" style="text;strokeColor=none;fillColor=none;align=left;verticalAlign=top;spacingLeft=4;spacingRight=4;overflow=hidden;rotatable=0;points=[[0,0.5],[1,0.5]];portConstraint=eastwest;whiteSpace=wrap;html=1;" parent="7v97pKfbZcQ0z_pEZCTl-15" vertex="1">
          <mxGeometry y="164" width="160" height="26" as="geometry" />
        </mxCell>
        <mxCell id="7v97pKfbZcQ0z_pEZCTl-22" value="Опубликовать()" style="text;strokeColor=none;fillColor=none;align=left;verticalAlign=top;spacingLeft=4;spacingRight=4;overflow=hidden;rotatable=0;points=[[0,0.5],[1,0.5]];portConstraint=eastwest;whiteSpace=wrap;html=1;" parent="7v97pKfbZcQ0z_pEZCTl-15" vertex="1">
          <mxGeometry y="190" width="160" height="26" as="geometry" />
        </mxCell>
        <mxCell id="7v97pKfbZcQ0z_pEZCTl-25" value="Категория" style="swimlane;fontStyle=1;align=center;verticalAlign=top;childLayout=stackLayout;horizontal=1;startSize=26;horizontalStack=0;resizeParent=1;resizeParentMax=0;resizeLast=0;collapsible=1;marginBottom=0;whiteSpace=wrap;html=1;" parent="WIyWlLk6GJQsqaUBKTNV-1" vertex="1">
          <mxGeometry x="990" y="433.5" width="160" height="86" as="geometry" />
        </mxCell>
        <mxCell id="7v97pKfbZcQ0z_pEZCTl-26" value="Название" style="text;strokeColor=none;fillColor=none;align=left;verticalAlign=top;spacingLeft=4;spacingRight=4;overflow=hidden;rotatable=0;points=[[0,0.5],[1,0.5]];portConstraint=eastwest;whiteSpace=wrap;html=1;" parent="7v97pKfbZcQ0z_pEZCTl-25" vertex="1">
          <mxGeometry y="26" width="160" height="26" as="geometry" />
        </mxCell>
        <mxCell id="7v97pKfbZcQ0z_pEZCTl-27" value="" style="line;strokeWidth=1;fillColor=none;align=left;verticalAlign=middle;spacingTop=-1;spacingLeft=3;spacingRight=3;rotatable=0;labelPosition=right;points=[];portConstraint=eastwest;strokeColor=inherit;" parent="7v97pKfbZcQ0z_pEZCTl-25" vertex="1">
          <mxGeometry y="52" width="160" height="8" as="geometry" />
        </mxCell>
        <mxCell id="7v97pKfbZcQ0z_pEZCTl-28" value="&lt;div&gt;&lt;br&gt;&lt;/div&gt;" style="text;strokeColor=none;fillColor=none;align=left;verticalAlign=top;spacingLeft=4;spacingRight=4;overflow=hidden;rotatable=0;points=[[0,0.5],[1,0.5]];portConstraint=eastwest;whiteSpace=wrap;html=1;" parent="7v97pKfbZcQ0z_pEZCTl-25" vertex="1">
          <mxGeometry y="60" width="160" height="26" as="geometry" />
        </mxCell>
        <mxCell id="7v97pKfbZcQ0z_pEZCTl-29" value="Статус документа" style="swimlane;fontStyle=1;align=center;verticalAlign=top;childLayout=stackLayout;horizontal=1;startSize=26;horizontalStack=0;resizeParent=1;resizeParentMax=0;resizeLast=0;collapsible=1;marginBottom=0;whiteSpace=wrap;html=1;" parent="WIyWlLk6GJQsqaUBKTNV-1" vertex="1">
          <mxGeometry x="990" y="550.5" width="160" height="86" as="geometry" />
        </mxCell>
        <mxCell id="7v97pKfbZcQ0z_pEZCTl-30" value="Название" style="text;strokeColor=none;fillColor=none;align=left;verticalAlign=top;spacingLeft=4;spacingRight=4;overflow=hidden;rotatable=0;points=[[0,0.5],[1,0.5]];portConstraint=eastwest;whiteSpace=wrap;html=1;" parent="7v97pKfbZcQ0z_pEZCTl-29" vertex="1">
          <mxGeometry y="26" width="160" height="26" as="geometry" />
        </mxCell>
        <mxCell id="7v97pKfbZcQ0z_pEZCTl-31" value="" style="line;strokeWidth=1;fillColor=none;align=left;verticalAlign=middle;spacingTop=-1;spacingLeft=3;spacingRight=3;rotatable=0;labelPosition=right;points=[];portConstraint=eastwest;strokeColor=inherit;" parent="7v97pKfbZcQ0z_pEZCTl-29" vertex="1">
          <mxGeometry y="52" width="160" height="8" as="geometry" />
        </mxCell>
        <mxCell id="7v97pKfbZcQ0z_pEZCTl-32" value="&lt;div&gt;&lt;br&gt;&lt;/div&gt;" style="text;strokeColor=none;fillColor=none;align=left;verticalAlign=top;spacingLeft=4;spacingRight=4;overflow=hidden;rotatable=0;points=[[0,0.5],[1,0.5]];portConstraint=eastwest;whiteSpace=wrap;html=1;" parent="7v97pKfbZcQ0z_pEZCTl-29" vertex="1">
          <mxGeometry y="60" width="160" height="26" as="geometry" />
        </mxCell>
        <mxCell id="7v97pKfbZcQ0z_pEZCTl-33" value="" style="group" parent="WIyWlLk6GJQsqaUBKTNV-1" vertex="1" connectable="0">
          <mxGeometry x="120" y="174.5" width="80" height="30" as="geometry" />
        </mxCell>
        <mxCell id="7v97pKfbZcQ0z_pEZCTl-12" value="" style="endArrow=diamondThin;endFill=0;endSize=24;html=1;rounded=0;entryX=1;entryY=1.007;entryDx=0;entryDy=0;entryPerimeter=0;" parent="7v97pKfbZcQ0z_pEZCTl-33" target="7v97pKfbZcQ0z_pEZCTl-14" edge="1">
          <mxGeometry width="160" relative="1" as="geometry">
            <mxPoint y="30" as="sourcePoint" />
            <mxPoint x="160" y="30" as="targetPoint" />
          </mxGeometry>
        </mxCell>
        <mxCell id="7v97pKfbZcQ0z_pEZCTl-13" value="1" style="text;html=1;align=center;verticalAlign=middle;resizable=0;points=[];autosize=1;strokeColor=none;fillColor=none;" parent="7v97pKfbZcQ0z_pEZCTl-33" vertex="1">
          <mxGeometry width="30" height="30" as="geometry" />
        </mxCell>
        <mxCell id="7v97pKfbZcQ0z_pEZCTl-14" value="1" style="text;html=1;align=center;verticalAlign=middle;resizable=0;points=[];autosize=1;strokeColor=none;fillColor=none;" parent="7v97pKfbZcQ0z_pEZCTl-33" vertex="1">
          <mxGeometry x="50" width="30" height="30" as="geometry" />
        </mxCell>
        <mxCell id="7v97pKfbZcQ0z_pEZCTl-35" value="" style="endArrow=diamondThin;endFill=0;endSize=24;html=1;rounded=0;exitX=-0.002;exitY=0.766;exitDx=0;exitDy=0;exitPerimeter=0;" parent="WIyWlLk6GJQsqaUBKTNV-1" source="7v97pKfbZcQ0z_pEZCTl-26" target="7v97pKfbZcQ0z_pEZCTl-16" edge="1">
          <mxGeometry width="160" relative="1" as="geometry">
            <mxPoint x="790" y="400" as="sourcePoint" />
            <mxPoint x="950" y="400" as="targetPoint" />
          </mxGeometry>
        </mxCell>
        <mxCell id="7v97pKfbZcQ0z_pEZCTl-36" value="1" style="text;html=1;align=center;verticalAlign=middle;resizable=0;points=[];autosize=1;strokeColor=none;fillColor=none;" parent="WIyWlLk6GJQsqaUBKTNV-1" vertex="1">
          <mxGeometry x="910" y="450" width="30" height="30" as="geometry" />
        </mxCell>
        <mxCell id="7v97pKfbZcQ0z_pEZCTl-37" value="1" style="text;html=1;align=center;verticalAlign=middle;resizable=0;points=[];autosize=1;strokeColor=none;fillColor=none;" parent="WIyWlLk6GJQsqaUBKTNV-1" vertex="1">
          <mxGeometry x="960" y="450" width="30" height="30" as="geometry" />
        </mxCell>
        <mxCell id="7v97pKfbZcQ0z_pEZCTl-38" value="" style="endArrow=diamondThin;endFill=0;endSize=24;html=1;rounded=0;exitX=0;exitY=0.5;exitDx=0;exitDy=0;entryX=0.011;entryY=0.982;entryDx=0;entryDy=0;entryPerimeter=0;" parent="WIyWlLk6GJQsqaUBKTNV-1" source="7v97pKfbZcQ0z_pEZCTl-30" target="7v97pKfbZcQ0z_pEZCTl-39" edge="1">
          <mxGeometry width="160" relative="1" as="geometry">
            <mxPoint x="841" y="369" as="sourcePoint" />
            <mxPoint x="840" y="450" as="targetPoint" />
          </mxGeometry>
        </mxCell>
        <mxCell id="7v97pKfbZcQ0z_pEZCTl-39" value="1" style="text;html=1;align=center;verticalAlign=middle;resizable=0;points=[];autosize=1;strokeColor=none;fillColor=none;" parent="WIyWlLk6GJQsqaUBKTNV-1" vertex="1">
          <mxGeometry x="910" y="560" width="30" height="30" as="geometry" />
        </mxCell>
        <mxCell id="7v97pKfbZcQ0z_pEZCTl-40" value="1" style="text;html=1;align=center;verticalAlign=middle;resizable=0;points=[];autosize=1;strokeColor=none;fillColor=none;" parent="WIyWlLk6GJQsqaUBKTNV-1" vertex="1">
          <mxGeometry x="960" y="560" width="30" height="30" as="geometry" />
        </mxCell>
        <mxCell id="7v97pKfbZcQ0z_pEZCTl-41" value="Должность" style="swimlane;fontStyle=1;align=center;verticalAlign=top;childLayout=stackLayout;horizontal=1;startSize=26;horizontalStack=0;resizeParent=1;resizeParentMax=0;resizeLast=0;collapsible=1;marginBottom=0;whiteSpace=wrap;html=1;" parent="WIyWlLk6GJQsqaUBKTNV-1" vertex="1">
          <mxGeometry x="200" y="-2.5" width="160" height="86" as="geometry" />
        </mxCell>
        <mxCell id="7v97pKfbZcQ0z_pEZCTl-42" value="Название" style="text;strokeColor=none;fillColor=none;align=left;verticalAlign=top;spacingLeft=4;spacingRight=4;overflow=hidden;rotatable=0;points=[[0,0.5],[1,0.5]];portConstraint=eastwest;whiteSpace=wrap;html=1;" parent="7v97pKfbZcQ0z_pEZCTl-41" vertex="1">
          <mxGeometry y="26" width="160" height="26" as="geometry" />
        </mxCell>
        <mxCell id="7v97pKfbZcQ0z_pEZCTl-43" value="" style="line;strokeWidth=1;fillColor=none;align=left;verticalAlign=middle;spacingTop=-1;spacingLeft=3;spacingRight=3;rotatable=0;labelPosition=right;points=[];portConstraint=eastwest;strokeColor=inherit;" parent="7v97pKfbZcQ0z_pEZCTl-41" vertex="1">
          <mxGeometry y="52" width="160" height="8" as="geometry" />
        </mxCell>
        <mxCell id="7v97pKfbZcQ0z_pEZCTl-44" value="&lt;div&gt;&lt;br&gt;&lt;/div&gt;" style="text;strokeColor=none;fillColor=none;align=left;verticalAlign=top;spacingLeft=4;spacingRight=4;overflow=hidden;rotatable=0;points=[[0,0.5],[1,0.5]];portConstraint=eastwest;whiteSpace=wrap;html=1;" parent="7v97pKfbZcQ0z_pEZCTl-41" vertex="1">
          <mxGeometry y="60" width="160" height="26" as="geometry" />
        </mxCell>
        <mxCell id="7v97pKfbZcQ0z_pEZCTl-45" value="" style="endArrow=diamondThin;endFill=0;endSize=24;html=1;rounded=0;entryX=0.5;entryY=0;entryDx=0;entryDy=0;exitX=0.504;exitY=1.009;exitDx=0;exitDy=0;exitPerimeter=0;" parent="WIyWlLk6GJQsqaUBKTNV-1" edge="1">
          <mxGeometry width="160" relative="1" as="geometry">
            <mxPoint x="281" y="83.5" as="sourcePoint" />
            <mxPoint x="280" y="164.5" as="targetPoint" />
          </mxGeometry>
        </mxCell>
        <mxCell id="7v97pKfbZcQ0z_pEZCTl-46" value="1" style="text;html=1;align=center;verticalAlign=middle;resizable=0;points=[];autosize=1;strokeColor=none;fillColor=none;" parent="WIyWlLk6GJQsqaUBKTNV-1" vertex="1">
          <mxGeometry x="280" y="134.5" width="30" height="30" as="geometry" />
        </mxCell>
        <mxCell id="7v97pKfbZcQ0z_pEZCTl-47" value="1" style="text;html=1;align=center;verticalAlign=middle;resizable=0;points=[];autosize=1;strokeColor=none;fillColor=none;" parent="WIyWlLk6GJQsqaUBKTNV-1" vertex="1">
          <mxGeometry x="280" y="83.5" width="30" height="30" as="geometry" />
        </mxCell>
        <mxCell id="7v97pKfbZcQ0z_pEZCTl-48" value="Маршрут согласования" style="swimlane;fontStyle=1;align=center;verticalAlign=top;childLayout=stackLayout;horizontal=1;startSize=26;horizontalStack=0;resizeParent=1;resizeParentMax=0;resizeLast=0;collapsible=1;marginBottom=0;whiteSpace=wrap;html=1;" parent="WIyWlLk6GJQsqaUBKTNV-1" vertex="1">
          <mxGeometry x="460" y="440.5" width="200" height="138" as="geometry">
            <mxRectangle x="520" y="430" width="210" height="30" as="alternateBounds" />
          </mxGeometry>
        </mxCell>
        <mxCell id="7v97pKfbZcQ0z_pEZCTl-50" value="Название" style="text;strokeColor=none;fillColor=none;align=left;verticalAlign=top;spacingLeft=4;spacingRight=4;overflow=hidden;rotatable=0;points=[[0,0.5],[1,0.5]];portConstraint=eastwest;whiteSpace=wrap;html=1;" parent="7v97pKfbZcQ0z_pEZCTl-48" vertex="1">
          <mxGeometry y="26" width="200" height="26" as="geometry" />
        </mxCell>
        <mxCell id="7v97pKfbZcQ0z_pEZCTl-51" value="" style="line;strokeWidth=1;fillColor=none;align=left;verticalAlign=middle;spacingTop=-1;spacingLeft=3;spacingRight=3;rotatable=0;labelPosition=right;points=[];portConstraint=eastwest;strokeColor=inherit;" parent="7v97pKfbZcQ0z_pEZCTl-48" vertex="1">
          <mxGeometry y="52" width="200" height="8" as="geometry" />
        </mxCell>
        <mxCell id="7v97pKfbZcQ0z_pEZCTl-52" value="Просмотр()" style="text;strokeColor=none;fillColor=none;align=left;verticalAlign=top;spacingLeft=4;spacingRight=4;overflow=hidden;rotatable=0;points=[[0,0.5],[1,0.5]];portConstraint=eastwest;whiteSpace=wrap;html=1;" parent="7v97pKfbZcQ0z_pEZCTl-48" vertex="1">
          <mxGeometry y="60" width="200" height="26" as="geometry" />
        </mxCell>
        <mxCell id="7v97pKfbZcQ0z_pEZCTl-54" value="ПолучитьСтатус()" style="text;strokeColor=none;fillColor=none;align=left;verticalAlign=top;spacingLeft=4;spacingRight=4;overflow=hidden;rotatable=0;points=[[0,0.5],[1,0.5]];portConstraint=eastwest;whiteSpace=wrap;html=1;" parent="7v97pKfbZcQ0z_pEZCTl-48" vertex="1">
          <mxGeometry y="86" width="200" height="26" as="geometry" />
        </mxCell>
        <mxCell id="7v97pKfbZcQ0z_pEZCTl-55" value="ИзменитьСтатус()" style="text;strokeColor=none;fillColor=none;align=left;verticalAlign=top;spacingLeft=4;spacingRight=4;overflow=hidden;rotatable=0;points=[[0,0.5],[1,0.5]];portConstraint=eastwest;whiteSpace=wrap;html=1;" parent="7v97pKfbZcQ0z_pEZCTl-48" vertex="1">
          <mxGeometry y="112" width="200" height="26" as="geometry" />
        </mxCell>
        <mxCell id="7v97pKfbZcQ0z_pEZCTl-57" value="Администратор" style="swimlane;fontStyle=1;align=center;verticalAlign=top;childLayout=stackLayout;horizontal=1;startSize=26;horizontalStack=0;resizeParent=1;resizeParentMax=0;resizeLast=0;collapsible=1;marginBottom=0;whiteSpace=wrap;html=1;" parent="WIyWlLk6GJQsqaUBKTNV-1" vertex="1">
          <mxGeometry x="-40" y="324.5" width="160" height="86" as="geometry" />
        </mxCell>
        <mxCell id="7v97pKfbZcQ0z_pEZCTl-58" value="&amp;nbsp;" style="text;strokeColor=none;fillColor=none;align=left;verticalAlign=top;spacingLeft=4;spacingRight=4;overflow=hidden;rotatable=0;points=[[0,0.5],[1,0.5]];portConstraint=eastwest;whiteSpace=wrap;html=1;" parent="7v97pKfbZcQ0z_pEZCTl-57" vertex="1">
          <mxGeometry y="26" width="160" height="26" as="geometry" />
        </mxCell>
        <mxCell id="7v97pKfbZcQ0z_pEZCTl-59" value="" style="line;strokeWidth=1;fillColor=none;align=left;verticalAlign=middle;spacingTop=-1;spacingLeft=3;spacingRight=3;rotatable=0;labelPosition=right;points=[];portConstraint=eastwest;strokeColor=inherit;" parent="7v97pKfbZcQ0z_pEZCTl-57" vertex="1">
          <mxGeometry y="52" width="160" height="8" as="geometry" />
        </mxCell>
        <mxCell id="7v97pKfbZcQ0z_pEZCTl-60" value="&lt;div&gt;СоздатьМаршрут()&lt;/div&gt;" style="text;strokeColor=none;fillColor=none;align=left;verticalAlign=top;spacingLeft=4;spacingRight=4;overflow=hidden;rotatable=0;points=[[0,0.5],[1,0.5]];portConstraint=eastwest;whiteSpace=wrap;html=1;" parent="7v97pKfbZcQ0z_pEZCTl-57" vertex="1">
          <mxGeometry y="60" width="160" height="26" as="geometry" />
        </mxCell>
        <mxCell id="7v97pKfbZcQ0z_pEZCTl-62" value="" style="endArrow=block;endSize=16;endFill=0;html=1;rounded=0;fontFamily=Helvetica;fontSize=12;fontColor=default;exitX=0.5;exitY=1;exitDx=0;exitDy=0;entryX=0.5;entryY=0;entryDx=0;entryDy=0;" parent="WIyWlLk6GJQsqaUBKTNV-1" source="7v97pKfbZcQ0z_pEZCTl-0" target="7v97pKfbZcQ0z_pEZCTl-57" edge="1">
          <mxGeometry width="160" relative="1" as="geometry">
            <mxPoint x="230" y="340" as="sourcePoint" />
            <mxPoint x="390" y="340" as="targetPoint" />
            <Array as="points">
              <mxPoint x="280" y="300" />
              <mxPoint x="160" y="300" />
              <mxPoint x="40" y="300" />
            </Array>
          </mxGeometry>
        </mxCell>
        <mxCell id="7v97pKfbZcQ0z_pEZCTl-64" value="" style="endArrow=diamondThin;endFill=1;endSize=24;html=1;rounded=0;fontFamily=Helvetica;fontSize=12;fontColor=default;entryX=0.5;entryY=0;entryDx=0;entryDy=0;" parent="WIyWlLk6GJQsqaUBKTNV-1" target="7v97pKfbZcQ0z_pEZCTl-77" edge="1">
          <mxGeometry width="160" relative="1" as="geometry">
            <mxPoint x="280" y="300" as="sourcePoint" />
            <mxPoint x="360" y="440" as="targetPoint" />
            <Array as="points">
              <mxPoint x="280" y="360" />
              <mxPoint x="280" y="400" />
            </Array>
          </mxGeometry>
        </mxCell>
        <mxCell id="7v97pKfbZcQ0z_pEZCTl-65" value="1" style="text;html=1;align=center;verticalAlign=middle;resizable=0;points=[];autosize=1;strokeColor=none;fillColor=none;" parent="WIyWlLk6GJQsqaUBKTNV-1" vertex="1">
          <mxGeometry x="280" y="300" width="30" height="30" as="geometry" />
        </mxCell>
        <mxCell id="7v97pKfbZcQ0z_pEZCTl-66" value="*" style="text;html=1;align=center;verticalAlign=middle;resizable=0;points=[];autosize=1;strokeColor=none;fillColor=none;fontSize=14;" parent="WIyWlLk6GJQsqaUBKTNV-1" vertex="1">
          <mxGeometry x="280" y="450" width="30" height="30" as="geometry" />
        </mxCell>
        <mxCell id="7v97pKfbZcQ0z_pEZCTl-67" value="Статус согласования" style="swimlane;fontStyle=1;align=center;verticalAlign=top;childLayout=stackLayout;horizontal=1;startSize=26;horizontalStack=0;resizeParent=1;resizeParentMax=0;resizeLast=0;collapsible=1;marginBottom=0;whiteSpace=wrap;html=1;" parent="WIyWlLk6GJQsqaUBKTNV-1" vertex="1">
          <mxGeometry x="480" y="680" width="160" height="86" as="geometry" />
        </mxCell>
        <mxCell id="7v97pKfbZcQ0z_pEZCTl-68" value="Название" style="text;strokeColor=none;fillColor=none;align=left;verticalAlign=top;spacingLeft=4;spacingRight=4;overflow=hidden;rotatable=0;points=[[0,0.5],[1,0.5]];portConstraint=eastwest;whiteSpace=wrap;html=1;" parent="7v97pKfbZcQ0z_pEZCTl-67" vertex="1">
          <mxGeometry y="26" width="160" height="26" as="geometry" />
        </mxCell>
        <mxCell id="7v97pKfbZcQ0z_pEZCTl-69" value="" style="line;strokeWidth=1;fillColor=none;align=left;verticalAlign=middle;spacingTop=-1;spacingLeft=3;spacingRight=3;rotatable=0;labelPosition=right;points=[];portConstraint=eastwest;strokeColor=inherit;" parent="7v97pKfbZcQ0z_pEZCTl-67" vertex="1">
          <mxGeometry y="52" width="160" height="8" as="geometry" />
        </mxCell>
        <mxCell id="7v97pKfbZcQ0z_pEZCTl-70" value="&lt;div&gt;&lt;br&gt;&lt;/div&gt;" style="text;strokeColor=none;fillColor=none;align=left;verticalAlign=top;spacingLeft=4;spacingRight=4;overflow=hidden;rotatable=0;points=[[0,0.5],[1,0.5]];portConstraint=eastwest;whiteSpace=wrap;html=1;" parent="7v97pKfbZcQ0z_pEZCTl-67" vertex="1">
          <mxGeometry y="60" width="160" height="26" as="geometry" />
        </mxCell>
        <mxCell id="7v97pKfbZcQ0z_pEZCTl-71" value="" style="endArrow=diamondThin;endFill=0;endSize=24;html=1;rounded=0;exitX=0.5;exitY=0;exitDx=0;exitDy=0;entryX=0.5;entryY=1;entryDx=0;entryDy=0;" parent="WIyWlLk6GJQsqaUBKTNV-1" edge="1" target="7v97pKfbZcQ0z_pEZCTl-48" source="7v97pKfbZcQ0z_pEZCTl-67">
          <mxGeometry width="160" relative="1" as="geometry">
            <mxPoint x="600" y="640" as="sourcePoint" />
            <mxPoint x="520" y="640" as="targetPoint" />
          </mxGeometry>
        </mxCell>
        <mxCell id="7v97pKfbZcQ0z_pEZCTl-72" value="1" style="text;html=1;align=center;verticalAlign=middle;resizable=0;points=[];autosize=1;strokeColor=none;fillColor=none;" parent="WIyWlLk6GJQsqaUBKTNV-1" vertex="1">
          <mxGeometry x="560" y="604" width="30" height="30" as="geometry" />
        </mxCell>
        <mxCell id="7v97pKfbZcQ0z_pEZCTl-73" value="1" style="text;html=1;align=center;verticalAlign=middle;resizable=0;points=[];autosize=1;strokeColor=none;fillColor=none;" parent="WIyWlLk6GJQsqaUBKTNV-1" vertex="1">
          <mxGeometry x="560" y="650" width="30" height="30" as="geometry" />
        </mxCell>
        <mxCell id="7v97pKfbZcQ0z_pEZCTl-74" value="" style="endArrow=diamondThin;endFill=1;endSize=24;html=1;rounded=0;fontFamily=Helvetica;fontSize=12;fontColor=default;exitX=0;exitY=0.5;exitDx=0;exitDy=0;entryX=1;entryY=0.5;entryDx=0;entryDy=0;" parent="WIyWlLk6GJQsqaUBKTNV-1" source="7v97pKfbZcQ0z_pEZCTl-16" target="7v97pKfbZcQ0z_pEZCTl-50" edge="1">
          <mxGeometry width="160" relative="1" as="geometry">
            <mxPoint x="590" y="410" as="sourcePoint" />
            <mxPoint x="750" y="410" as="targetPoint" />
          </mxGeometry>
        </mxCell>
        <mxCell id="7v97pKfbZcQ0z_pEZCTl-75" value="1" style="text;html=1;align=center;verticalAlign=middle;resizable=0;points=[];autosize=1;strokeColor=none;fillColor=none;" parent="WIyWlLk6GJQsqaUBKTNV-1" vertex="1">
          <mxGeometry x="660" y="450" width="30" height="30" as="geometry" />
        </mxCell>
        <mxCell id="7v97pKfbZcQ0z_pEZCTl-76" value="1" style="text;html=1;align=center;verticalAlign=middle;resizable=0;points=[];autosize=1;strokeColor=none;fillColor=none;" parent="WIyWlLk6GJQsqaUBKTNV-1" vertex="1">
          <mxGeometry x="720" y="450" width="30" height="30" as="geometry" />
        </mxCell>
        <mxCell id="7v97pKfbZcQ0z_pEZCTl-77" value="Список согласовантов" style="swimlane;fontStyle=1;align=center;verticalAlign=top;childLayout=stackLayout;horizontal=1;startSize=26;horizontalStack=0;resizeParent=1;resizeParentMax=0;resizeLast=0;collapsible=1;marginBottom=0;whiteSpace=wrap;html=1;" parent="WIyWlLk6GJQsqaUBKTNV-1" vertex="1">
          <mxGeometry x="200" y="440.5" width="160" height="138" as="geometry" />
        </mxCell>
        <mxCell id="7v97pKfbZcQ0z_pEZCTl-78" value="Приоритет" style="text;strokeColor=none;fillColor=none;align=left;verticalAlign=top;spacingLeft=4;spacingRight=4;overflow=hidden;rotatable=0;points=[[0,0.5],[1,0.5]];portConstraint=eastwest;whiteSpace=wrap;html=1;" parent="7v97pKfbZcQ0z_pEZCTl-77" vertex="1">
          <mxGeometry y="26" width="160" height="26" as="geometry" />
        </mxCell>
        <mxCell id="7v97pKfbZcQ0z_pEZCTl-79" value="" style="line;strokeWidth=1;fillColor=none;align=left;verticalAlign=middle;spacingTop=-1;spacingLeft=3;spacingRight=3;rotatable=0;labelPosition=right;points=[];portConstraint=eastwest;strokeColor=inherit;" parent="7v97pKfbZcQ0z_pEZCTl-77" vertex="1">
          <mxGeometry y="52" width="160" height="8" as="geometry" />
        </mxCell>
        <mxCell id="7v97pKfbZcQ0z_pEZCTl-80" value="&lt;div&gt;ДобавитьСогласовантов()&lt;/div&gt;" style="text;strokeColor=none;fillColor=none;align=left;verticalAlign=top;spacingLeft=4;spacingRight=4;overflow=hidden;rotatable=0;points=[[0,0.5],[1,0.5]];portConstraint=eastwest;whiteSpace=wrap;html=1;" parent="7v97pKfbZcQ0z_pEZCTl-77" vertex="1">
          <mxGeometry y="60" width="160" height="26" as="geometry" />
        </mxCell>
        <mxCell id="7v97pKfbZcQ0z_pEZCTl-85" value="ИзменитьСогласовантов()" style="text;strokeColor=none;fillColor=none;align=left;verticalAlign=top;spacingLeft=4;spacingRight=4;overflow=hidden;rotatable=0;points=[[0,0.5],[1,0.5]];portConstraint=eastwest;whiteSpace=wrap;html=1;" parent="7v97pKfbZcQ0z_pEZCTl-77" vertex="1">
          <mxGeometry y="86" width="160" height="26" as="geometry" />
        </mxCell>
        <mxCell id="7v97pKfbZcQ0z_pEZCTl-84" value="УдалитьСогласовантов()" style="text;strokeColor=none;fillColor=none;align=left;verticalAlign=top;spacingLeft=4;spacingRight=4;overflow=hidden;rotatable=0;points=[[0,0.5],[1,0.5]];portConstraint=eastwest;whiteSpace=wrap;html=1;" parent="7v97pKfbZcQ0z_pEZCTl-77" vertex="1">
          <mxGeometry y="112" width="160" height="26" as="geometry" />
        </mxCell>
        <mxCell id="7v97pKfbZcQ0z_pEZCTl-81" value="" style="endArrow=diamondThin;endFill=1;endSize=24;html=1;rounded=0;fontFamily=Helvetica;fontSize=12;fontColor=default;exitX=0;exitY=0.5;exitDx=0;exitDy=0;entryX=1;entryY=0.5;entryDx=0;entryDy=0;" parent="WIyWlLk6GJQsqaUBKTNV-1" source="7v97pKfbZcQ0z_pEZCTl-50" target="7v97pKfbZcQ0z_pEZCTl-78" edge="1">
          <mxGeometry width="160" relative="1" as="geometry">
            <mxPoint x="140" y="720" as="sourcePoint" />
            <mxPoint x="300" y="720" as="targetPoint" />
          </mxGeometry>
        </mxCell>
        <mxCell id="7v97pKfbZcQ0z_pEZCTl-82" value="1" style="text;html=1;align=center;verticalAlign=middle;resizable=0;points=[];autosize=1;strokeColor=none;fillColor=none;" parent="WIyWlLk6GJQsqaUBKTNV-1" vertex="1">
          <mxGeometry x="430" y="450" width="30" height="30" as="geometry" />
        </mxCell>
        <mxCell id="D8QGTvFc1EV0eLLDhIUu-1" value="" style="endArrow=diamondThin;endFill=0;endSize=24;html=1;rounded=0;exitX=0;exitY=0.5;exitDx=0;exitDy=0;entryX=0.5;entryY=1.077;entryDx=0;entryDy=0;entryPerimeter=0;" edge="1" parent="WIyWlLk6GJQsqaUBKTNV-1" source="7v97pKfbZcQ0z_pEZCTl-68" target="7v97pKfbZcQ0z_pEZCTl-84">
          <mxGeometry width="160" relative="1" as="geometry">
            <mxPoint x="420" y="736" as="sourcePoint" />
            <mxPoint x="420" y="660" as="targetPoint" />
            <Array as="points">
              <mxPoint x="280" y="720" />
            </Array>
          </mxGeometry>
        </mxCell>
        <mxCell id="D8QGTvFc1EV0eLLDhIUu-2" value="1" style="text;html=1;align=center;verticalAlign=middle;resizable=0;points=[];autosize=1;strokeColor=none;fillColor=none;" vertex="1" parent="WIyWlLk6GJQsqaUBKTNV-1">
          <mxGeometry x="450" y="690" width="30" height="30" as="geometry" />
        </mxCell>
        <mxCell id="D8QGTvFc1EV0eLLDhIUu-3" value="*" style="text;html=1;align=center;verticalAlign=middle;resizable=0;points=[];autosize=1;strokeColor=none;fillColor=none;" vertex="1" parent="WIyWlLk6GJQsqaUBKTNV-1">
          <mxGeometry x="280" y="598" width="30" height="30" as="geometry" />
        </mxCell>
        <mxCell id="D8QGTvFc1EV0eLLDhIUu-4" value="*" style="text;html=1;align=center;verticalAlign=middle;resizable=0;points=[];autosize=1;strokeColor=none;fillColor=none;" vertex="1" parent="WIyWlLk6GJQsqaUBKTNV-1">
          <mxGeometry x="360" y="450" width="30" height="30" as="geometry" />
        </mxCell>
        <mxCell id="D8QGTvFc1EV0eLLDhIUu-5" value="*" style="text;html=1;align=center;verticalAlign=middle;resizable=0;points=[];autosize=1;strokeColor=none;fillColor=none;" vertex="1" parent="WIyWlLk6GJQsqaUBKTNV-1">
          <mxGeometry x="280" y="410.5" width="30" height="30" as="geometry" />
        </mxCell>
        <mxCell id="D8QGTvFc1EV0eLLDhIUu-6" value="Шаги согласования" style="swimlane;fontStyle=1;align=center;verticalAlign=top;childLayout=stackLayout;horizontal=1;startSize=26;horizontalStack=0;resizeParent=1;resizeParentMax=0;resizeLast=0;collapsible=1;marginBottom=0;whiteSpace=wrap;html=1;" vertex="1" parent="WIyWlLk6GJQsqaUBKTNV-1">
          <mxGeometry x="-280" y="440" width="160" height="112" as="geometry" />
        </mxCell>
        <mxCell id="D8QGTvFc1EV0eLLDhIUu-7" value="Действие" style="text;strokeColor=none;fillColor=none;align=left;verticalAlign=top;spacingLeft=4;spacingRight=4;overflow=hidden;rotatable=0;points=[[0,0.5],[1,0.5]];portConstraint=eastwest;whiteSpace=wrap;html=1;" vertex="1" parent="D8QGTvFc1EV0eLLDhIUu-6">
          <mxGeometry y="26" width="160" height="26" as="geometry" />
        </mxCell>
        <mxCell id="D8QGTvFc1EV0eLLDhIUu-13" value="Факт выполнения" style="text;strokeColor=none;fillColor=none;align=left;verticalAlign=top;spacingLeft=4;spacingRight=4;overflow=hidden;rotatable=0;points=[[0,0.5],[1,0.5]];portConstraint=eastwest;whiteSpace=wrap;html=1;" vertex="1" parent="D8QGTvFc1EV0eLLDhIUu-6">
          <mxGeometry y="52" width="160" height="26" as="geometry" />
        </mxCell>
        <mxCell id="D8QGTvFc1EV0eLLDhIUu-8" value="" style="line;strokeWidth=1;fillColor=none;align=left;verticalAlign=middle;spacingTop=-1;spacingLeft=3;spacingRight=3;rotatable=0;labelPosition=right;points=[];portConstraint=eastwest;strokeColor=inherit;" vertex="1" parent="D8QGTvFc1EV0eLLDhIUu-6">
          <mxGeometry y="78" width="160" height="8" as="geometry" />
        </mxCell>
        <mxCell id="D8QGTvFc1EV0eLLDhIUu-9" value="&lt;div&gt;&lt;br&gt;&lt;/div&gt;" style="text;strokeColor=none;fillColor=none;align=left;verticalAlign=top;spacingLeft=4;spacingRight=4;overflow=hidden;rotatable=0;points=[[0,0.5],[1,0.5]];portConstraint=eastwest;whiteSpace=wrap;html=1;" vertex="1" parent="D8QGTvFc1EV0eLLDhIUu-6">
          <mxGeometry y="86" width="160" height="26" as="geometry" />
        </mxCell>
        <mxCell id="D8QGTvFc1EV0eLLDhIUu-10" value="" style="endArrow=diamondThin;endFill=1;endSize=24;html=1;rounded=0;fontFamily=Helvetica;fontSize=12;fontColor=default;exitX=1;exitY=0.5;exitDx=0;exitDy=0;" edge="1" parent="WIyWlLk6GJQsqaUBKTNV-1" source="D8QGTvFc1EV0eLLDhIUu-7">
          <mxGeometry width="160" relative="1" as="geometry">
            <mxPoint x="-125" y="478.5" as="sourcePoint" />
            <mxPoint x="-40" y="479.5" as="targetPoint" />
          </mxGeometry>
        </mxCell>
        <mxCell id="D8QGTvFc1EV0eLLDhIUu-11" value="1" style="text;html=1;align=center;verticalAlign=middle;resizable=0;points=[];autosize=1;strokeColor=none;fillColor=none;" vertex="1" parent="WIyWlLk6GJQsqaUBKTNV-1">
          <mxGeometry x="-120" y="449.5" width="30" height="30" as="geometry" />
        </mxCell>
        <mxCell id="D8QGTvFc1EV0eLLDhIUu-12" value="*" style="text;html=1;align=center;verticalAlign=middle;resizable=0;points=[];autosize=1;strokeColor=none;fillColor=none;" vertex="1" parent="WIyWlLk6GJQsqaUBKTNV-1">
          <mxGeometry x="-70" y="449.5" width="30" height="30" as="geometry" />
        </mxCell>
        <mxCell id="D8QGTvFc1EV0eLLDhIUu-14" value="Шаги согласовантов" style="swimlane;fontStyle=1;align=center;verticalAlign=top;childLayout=stackLayout;horizontal=1;startSize=26;horizontalStack=0;resizeParent=1;resizeParentMax=0;resizeLast=0;collapsible=1;marginBottom=0;whiteSpace=wrap;html=1;" vertex="1" parent="WIyWlLk6GJQsqaUBKTNV-1">
          <mxGeometry x="-40" y="442" width="160" height="86" as="geometry" />
        </mxCell>
        <mxCell id="D8QGTvFc1EV0eLLDhIUu-15" value="" style="text;strokeColor=none;fillColor=none;align=left;verticalAlign=top;spacingLeft=4;spacingRight=4;overflow=hidden;rotatable=0;points=[[0,0.5],[1,0.5]];portConstraint=eastwest;whiteSpace=wrap;html=1;" vertex="1" parent="D8QGTvFc1EV0eLLDhIUu-14">
          <mxGeometry y="26" width="160" height="26" as="geometry" />
        </mxCell>
        <mxCell id="D8QGTvFc1EV0eLLDhIUu-16" value="" style="line;strokeWidth=1;fillColor=none;align=left;verticalAlign=middle;spacingTop=-1;spacingLeft=3;spacingRight=3;rotatable=0;labelPosition=right;points=[];portConstraint=eastwest;strokeColor=inherit;" vertex="1" parent="D8QGTvFc1EV0eLLDhIUu-14">
          <mxGeometry y="52" width="160" height="8" as="geometry" />
        </mxCell>
        <mxCell id="D8QGTvFc1EV0eLLDhIUu-17" value="&lt;div&gt;&lt;br&gt;&lt;/div&gt;" style="text;strokeColor=none;fillColor=none;align=left;verticalAlign=top;spacingLeft=4;spacingRight=4;overflow=hidden;rotatable=0;points=[[0,0.5],[1,0.5]];portConstraint=eastwest;whiteSpace=wrap;html=1;" vertex="1" parent="D8QGTvFc1EV0eLLDhIUu-14">
          <mxGeometry y="60" width="160" height="26" as="geometry" />
        </mxCell>
        <mxCell id="D8QGTvFc1EV0eLLDhIUu-18" value="" style="endArrow=diamondThin;endFill=1;endSize=24;html=1;rounded=0;fontFamily=Helvetica;fontSize=12;fontColor=default;exitX=0;exitY=0.5;exitDx=0;exitDy=0;entryX=0.005;entryY=1;entryDx=0;entryDy=0;entryPerimeter=0;" edge="1" parent="WIyWlLk6GJQsqaUBKTNV-1" target="D8QGTvFc1EV0eLLDhIUu-20">
          <mxGeometry width="160" relative="1" as="geometry">
            <mxPoint x="200" y="480" as="sourcePoint" />
            <mxPoint x="100" y="480" as="targetPoint" />
          </mxGeometry>
        </mxCell>
        <mxCell id="D8QGTvFc1EV0eLLDhIUu-19" value="1" style="text;html=1;align=center;verticalAlign=middle;resizable=0;points=[];autosize=1;strokeColor=none;fillColor=none;" vertex="1" parent="WIyWlLk6GJQsqaUBKTNV-1">
          <mxGeometry x="170" y="450" width="30" height="30" as="geometry" />
        </mxCell>
        <mxCell id="D8QGTvFc1EV0eLLDhIUu-20" value="*" style="text;html=1;align=center;verticalAlign=middle;resizable=0;points=[];autosize=1;strokeColor=none;fillColor=none;" vertex="1" parent="WIyWlLk6GJQsqaUBKTNV-1">
          <mxGeometry x="120" y="450" width="30" height="30" as="geometry" />
        </mxCell>
        <mxCell id="D8QGTvFc1EV0eLLDhIUu-21" value="Комментарий" style="swimlane;fontStyle=1;align=center;verticalAlign=top;childLayout=stackLayout;horizontal=1;startSize=26;horizontalStack=0;resizeParent=1;resizeParentMax=0;resizeLast=0;collapsible=1;marginBottom=0;whiteSpace=wrap;html=1;" vertex="1" parent="WIyWlLk6GJQsqaUBKTNV-1">
          <mxGeometry x="480" y="164.5" width="160" height="112" as="geometry" />
        </mxCell>
        <mxCell id="D8QGTvFc1EV0eLLDhIUu-22" value="Содержание" style="text;strokeColor=none;fillColor=none;align=left;verticalAlign=top;spacingLeft=4;spacingRight=4;overflow=hidden;rotatable=0;points=[[0,0.5],[1,0.5]];portConstraint=eastwest;whiteSpace=wrap;html=1;" vertex="1" parent="D8QGTvFc1EV0eLLDhIUu-21">
          <mxGeometry y="26" width="160" height="26" as="geometry" />
        </mxCell>
        <mxCell id="D8QGTvFc1EV0eLLDhIUu-31" value="Дата" style="text;strokeColor=none;fillColor=none;align=left;verticalAlign=top;spacingLeft=4;spacingRight=4;overflow=hidden;rotatable=0;points=[[0,0.5],[1,0.5]];portConstraint=eastwest;whiteSpace=wrap;html=1;" vertex="1" parent="D8QGTvFc1EV0eLLDhIUu-21">
          <mxGeometry y="52" width="160" height="26" as="geometry" />
        </mxCell>
        <mxCell id="D8QGTvFc1EV0eLLDhIUu-23" value="" style="line;strokeWidth=1;fillColor=none;align=left;verticalAlign=middle;spacingTop=-1;spacingLeft=3;spacingRight=3;rotatable=0;labelPosition=right;points=[];portConstraint=eastwest;strokeColor=inherit;" vertex="1" parent="D8QGTvFc1EV0eLLDhIUu-21">
          <mxGeometry y="78" width="160" height="8" as="geometry" />
        </mxCell>
        <mxCell id="D8QGTvFc1EV0eLLDhIUu-24" value="&lt;div&gt;&amp;nbsp;&lt;/div&gt;" style="text;strokeColor=none;fillColor=none;align=left;verticalAlign=top;spacingLeft=4;spacingRight=4;overflow=hidden;rotatable=0;points=[[0,0.5],[1,0.5]];portConstraint=eastwest;whiteSpace=wrap;html=1;" vertex="1" parent="D8QGTvFc1EV0eLLDhIUu-21">
          <mxGeometry y="86" width="160" height="26" as="geometry" />
        </mxCell>
        <mxCell id="D8QGTvFc1EV0eLLDhIUu-26" value="Уведомление" style="swimlane;fontStyle=1;align=center;verticalAlign=top;childLayout=stackLayout;horizontal=1;startSize=26;horizontalStack=0;resizeParent=1;resizeParentMax=0;resizeLast=0;collapsible=1;marginBottom=0;whiteSpace=wrap;html=1;" vertex="1" parent="WIyWlLk6GJQsqaUBKTNV-1">
          <mxGeometry x="480" y="-2.5" width="160" height="112" as="geometry" />
        </mxCell>
        <mxCell id="D8QGTvFc1EV0eLLDhIUu-27" value="Содержание" style="text;strokeColor=none;fillColor=none;align=left;verticalAlign=top;spacingLeft=4;spacingRight=4;overflow=hidden;rotatable=0;points=[[0,0.5],[1,0.5]];portConstraint=eastwest;whiteSpace=wrap;html=1;" vertex="1" parent="D8QGTvFc1EV0eLLDhIUu-26">
          <mxGeometry y="26" width="160" height="26" as="geometry" />
        </mxCell>
        <mxCell id="D8QGTvFc1EV0eLLDhIUu-32" value="Дата" style="text;strokeColor=none;fillColor=none;align=left;verticalAlign=top;spacingLeft=4;spacingRight=4;overflow=hidden;rotatable=0;points=[[0,0.5],[1,0.5]];portConstraint=eastwest;whiteSpace=wrap;html=1;" vertex="1" parent="D8QGTvFc1EV0eLLDhIUu-26">
          <mxGeometry y="52" width="160" height="26" as="geometry" />
        </mxCell>
        <mxCell id="D8QGTvFc1EV0eLLDhIUu-28" value="" style="line;strokeWidth=1;fillColor=none;align=left;verticalAlign=middle;spacingTop=-1;spacingLeft=3;spacingRight=3;rotatable=0;labelPosition=right;points=[];portConstraint=eastwest;strokeColor=inherit;" vertex="1" parent="D8QGTvFc1EV0eLLDhIUu-26">
          <mxGeometry y="78" width="160" height="8" as="geometry" />
        </mxCell>
        <mxCell id="D8QGTvFc1EV0eLLDhIUu-29" value="&lt;div&gt;ОтправитьУведомление()&lt;/div&gt;" style="text;strokeColor=none;fillColor=none;align=left;verticalAlign=top;spacingLeft=4;spacingRight=4;overflow=hidden;rotatable=0;points=[[0,0.5],[1,0.5]];portConstraint=eastwest;whiteSpace=wrap;html=1;" vertex="1" parent="D8QGTvFc1EV0eLLDhIUu-26">
          <mxGeometry y="86" width="160" height="26" as="geometry" />
        </mxCell>
        <mxCell id="D8QGTvFc1EV0eLLDhIUu-33" value="" style="endArrow=diamondThin;endFill=1;endSize=24;html=1;rounded=0;fontFamily=Helvetica;fontSize=12;fontColor=default;exitX=0.5;exitY=0;exitDx=0;exitDy=0;entryX=0.498;entryY=1.067;entryDx=0;entryDy=0;entryPerimeter=0;" edge="1" parent="WIyWlLk6GJQsqaUBKTNV-1" source="7v97pKfbZcQ0z_pEZCTl-15" target="D8QGTvFc1EV0eLLDhIUu-24">
          <mxGeometry width="160" relative="1" as="geometry">
            <mxPoint x="880" y="350" as="sourcePoint" />
            <mxPoint x="780" y="350" as="targetPoint" />
            <Array as="points">
              <mxPoint x="830" y="320" />
              <mxPoint x="560" y="320" />
            </Array>
          </mxGeometry>
        </mxCell>
        <mxCell id="D8QGTvFc1EV0eLLDhIUu-35" value="" style="endArrow=diamondThin;endFill=1;endSize=24;html=1;rounded=0;fontFamily=Helvetica;fontSize=12;fontColor=default;exitX=1.005;exitY=0.372;exitDx=0;exitDy=0;entryX=0.001;entryY=0.36;entryDx=0;entryDy=0;exitPerimeter=0;entryPerimeter=0;" edge="1" parent="WIyWlLk6GJQsqaUBKTNV-1" source="7v97pKfbZcQ0z_pEZCTl-1" target="D8QGTvFc1EV0eLLDhIUu-22">
          <mxGeometry width="160" relative="1" as="geometry">
            <mxPoint x="450" y="300" as="sourcePoint" />
            <mxPoint x="350" y="300" as="targetPoint" />
          </mxGeometry>
        </mxCell>
        <mxCell id="D8QGTvFc1EV0eLLDhIUu-36" value="" style="endArrow=diamondThin;endFill=1;endSize=24;html=1;rounded=0;fontFamily=Helvetica;fontSize=12;fontColor=default;entryX=0;entryY=0.637;entryDx=0;entryDy=0;entryPerimeter=0;" edge="1" parent="WIyWlLk6GJQsqaUBKTNV-1" target="D8QGTvFc1EV0eLLDhIUu-27">
          <mxGeometry width="160" relative="1" as="geometry">
            <mxPoint x="420" y="200" as="sourcePoint" />
            <mxPoint x="490" y="214" as="targetPoint" />
            <Array as="points">
              <mxPoint x="420" y="40" />
            </Array>
          </mxGeometry>
        </mxCell>
        <mxCell id="D8QGTvFc1EV0eLLDhIUu-37" value="1" style="text;html=1;align=center;verticalAlign=middle;resizable=0;points=[];autosize=1;strokeColor=none;fillColor=none;" vertex="1" parent="WIyWlLk6GJQsqaUBKTNV-1">
          <mxGeometry x="360" y="170.5" width="30" height="30" as="geometry" />
        </mxCell>
        <mxCell id="D8QGTvFc1EV0eLLDhIUu-38" value="1" style="text;html=1;align=center;verticalAlign=middle;resizable=0;points=[];autosize=1;strokeColor=none;fillColor=none;" vertex="1" parent="WIyWlLk6GJQsqaUBKTNV-1">
          <mxGeometry x="830" y="410" width="30" height="30" as="geometry" />
        </mxCell>
        <mxCell id="D8QGTvFc1EV0eLLDhIUu-39" value="*" style="text;html=1;align=center;verticalAlign=middle;resizable=0;points=[];autosize=1;strokeColor=none;fillColor=none;" vertex="1" parent="WIyWlLk6GJQsqaUBKTNV-1">
          <mxGeometry x="560" y="276.5" width="30" height="30" as="geometry" />
        </mxCell>
        <mxCell id="D8QGTvFc1EV0eLLDhIUu-40" value="*" style="text;html=1;align=center;verticalAlign=middle;resizable=0;points=[];autosize=1;strokeColor=none;fillColor=none;" vertex="1" parent="WIyWlLk6GJQsqaUBKTNV-1">
          <mxGeometry x="450" y="170.5" width="30" height="30" as="geometry" />
        </mxCell>
        <mxCell id="D8QGTvFc1EV0eLLDhIUu-41" value="*" style="text;html=1;align=center;verticalAlign=middle;resizable=0;points=[];autosize=1;strokeColor=none;fillColor=none;" vertex="1" parent="WIyWlLk6GJQsqaUBKTNV-1">
          <mxGeometry x="450" y="10" width="30" height="30" as="geometry" />
        </mxCell>
      </root>
    </mxGraphModel>
  </diagram>
</mxfile>
